{"title":"Miss Lovely (2014 ) - Web DL Rip - 1CD - Xvid Mp3{MaXX Releasers","uid":9535944,"size":740066738,"categoryP":"video","categoryS":"movies","magnet":"?xt=urn:btih:38740bf7296753851b83b7b8ca6f251be3048ea2&amp;dn=Miss+Lovely+%282014+%29+-+Web+DL+Rip+-+1CD+-+Xvid+Mp3%7BMaXX+Releasers&amp;tr=udp%3A%2F%2Ftracker.openbittorrent.com%3A80&amp;tr=udp%3A%2F%2Fopen.demonii.com%3A1337&amp;tr=udp%3A%2F%2Ftracker.coppersurfer.tk%3A6969&amp;tr=udp%3A%2F%2Fexodus.desync.com%3A6969","seeders":1,"leechers":0,"uploader":"shailendramaxx","files":22,"time":1390932741,"description":"MaXX RELEASERS PRESENTS\n\nGeneral:-\n \nComplete name :Miss Lovely (2014 ) - Web DL Rip - 1CD - Xvid Mp3{MaXX Releasers]\nFormat : AVI \nFormat/Info : Audio Video Interleave \nFile size : 698 MiB \nDuration : 1h 51mn \nOverall bit rate : 874 Kbps \n\nVideo:-\n \nID : 0 \nFormat : MPEG-4 Visual \nFormat profile : Advanced Simple@L5 \nFormat settings, BVOP : 2 \nFormat settings, QPel : No \nFormat settings, GMC : No warppoints \nFormat settings, Matrix : Default (H.263) \nCodec ID : XVID \nCodec ID/Hint : XviD \nDuration : 1h 51mn \nBit rate : 788 Kbps \nWidth : 640 pixels \nHeight : 272 pixels \nDisplay aspect ratio : 2.35:1 \nFrame rate : 24.000 fps \nColor space : YUV \nChroma subsampling : 4:2:0 \nBit depth : 8 bits \nScan type : Progressive \nCompression mode : Lossy \nBits/(Pixel*Frame) : 0.189 \nStream size : 630 MiB (90%) \nWriting library : XviD 1.2.1 (UTC 2008-12-04) \n\nAudio:-\n \nID : 1 \nFormat : MPEG Audio \nFormat version : Version 1 \nFormat profile : Layer 3 \nMode : Joint stereo \nMode extension : MS Stereo \nCodec ID : 55 \nCodec ID/Hint : MP3 \nDuration : 1h 51mn \nBit rate mode : Constant \nBit rate : 80.0 Kbps \nChannel(s) : 2 channels \nSampling rate : 32.0 KHz \nCompression mode : Lossy \nStream size : 63.9 MiB (9%) \nAlignment : Aligned on interleaves \nInterleave, duration : 167 ms (4.00 video frames) \nInterleave, preload duration : 216 ms \nTitle : ML - [0] \nWriting library : LAME3.99r \nEncoding settings : -m j -V 4 -q 2 -lowpass 13.5 -b 80 \n\n \n                 A BIG THANKS TO TEAM ICTV\n\n\nSCREENS:-\n\n\n[URL=http://imgur.com/upAUSuu][IMG]http://i.imgur.com/upAUSuu.jpg[/IMG][/URL]\n\n[URL=http://imgur.com/vk5f8qQ][IMG]http://i.imgur.com/vk5f8qQ.jpg[/IMG][/URL]\n\n[URL=http://imgur.com/chjIcqu][IMG]http://i.imgur.com/chjIcqu.jpg[/IMG][/URL]\n\n[URL=http://imgur.com/ro4i927][IMG]http://i.imgur.com/ro4i927.jpg[/IMG][/URL]\n\n[URL=http://imgur.com/ptMLjxK][IMG]http://i.imgur.com/ptMLjxK.jpg[/IMG][/URL]\n\n[URL=http://imgur.com/bayEVFI][IMG]http://i.imgur.com/bayEVFI.jpg[/IMG][/URL]\n\n[URL=http://imgur.com/lQBi3zN][IMG]http://i.imgur.com/lQBi3zN.jpg[/IMG][/URL]\n\n[URL=http://imgur.com/DMj6jpQ][IMG]http://i.imgur.com/DMj6jpQ.jpg[/IMG][/URL]\n\n[IMG]http://imageshack.com/a/img585/7278/bzke.png[/IMG]\n\n\nLANGUAGE:-   HINDI\n\nSAMPLE AND SCREENSHOTS INCLUDED\n\n          ********** PLEASE SEED AS LONG AS YOU CAN AFTER DOWNLOAD **********\n       \n                     ***** THANK YOU REGARDS - VIKKYMAXX *****\t\t","torrent":{"xt":"urn:btih:38740bf7296753851b83b7b8ca6f251be3048ea2","amp;dn":"Miss+Lovely+%282014+%29+-+Web+DL+Rip+-+1CD+-+Xvid+Mp3%7BMaXX+Releasers","amp;tr":["udp%3A%2F%2Ftracker.openbittorrent.com%3A80","udp%3A%2F%2Fopen.demonii.com%3A1337","udp%3A%2F%2Ftracker.coppersurfer.tk%3A6969","udp%3A%2F%2Fexodus.desync.com%3A6969"],"infoHash":"38740bf7296753851b83b7b8ca6f251be3048ea2","infoHashBuffer":{"type":"Buffer","data":[56,116,11,247,41,103,83,133,27,131,183,184,202,111,37,27,227,4,142,162]},"announce":[],"urlList":[]}}